<svg version="1.2" xmlns="http://www.w3.org/2000/svg" viewBox="0 0 3840 2160" width="3840" height="2160">
	<title>New Project</title>
	<style>
		.s0 { fill: #ffffff;stroke: #000000;stroke-width: 26 } 
		.s1 { fill: #ff0000;stroke: #000000;stroke-width: 26 } 
		.s2 { fill: #cc5700;stroke: #000000;stroke-width: 26 } 
		.s3 { fill: #000000;stroke: #000000;stroke-width: 26 } 
	</style>
	<path id="Bottom Body" class="s0" d="m1913 2021c-283.1 0-512-217.5-512-486.5c0-269 228.9-486.5 512-486.5c283.1 0 512 217.5 512 486.5c0 269-228.9 486.5-512 486.5z" />
	<path id="Mid Body" class="s0" d="m1920 1370.5c-202.4 0-366-155.4-366-347.7c0-192.3 163.6-347.8 366-347.8c202.4 0 366 155.5 366 347.8c0 192.3-163.6 347.7-366 347.7z" />
	<path id="Shape 1" class="s1" d="m1932.7 769.5c148.5 11.5 273.6-133.6 303-81c25.1 44.9-37.2 165.7-135 231c-123 82-205 84.1-336 15c-109.6-57.8-204.6-148.2-165-228c12.9-25.9 42-32.3 84.3-35.5c123.7-9.5 122.1 88.7 248.7 98.5z" />
	<path id="Head" class="s0" d="m1919.5 849.5c-152.9 0-276.5-117.5-276.5-262.8c0-145.3 123.6-262.7 276.5-262.7c152.9 0 276.5 117.4 276.5 262.7c0 145.3-123.6 262.8-276.5 262.8z" />
	<path id="Layer 1" class="s1" d="m2125 753.7c140.5 4.8 112 190.7 254.9 353.9c25.9 29.6 58.2 53.6 58.2 53.6l-55.8 80c0 0-120.9-134.9-229.4-279.2c-50.6-67.3-111.3-73.8-97.3-137.6c8.3-37.5 37.5-71.8 69.4-70.7z" />
	<path id="Shape 2" class="s1" d="m2133.7 742.5c83.8-7.1 126 243 126 243c0 0 6.7 102.1-35.7 177.5c-9.9 17.6-12.3 23.1-30.3 29.5c-81 28.9-189-21-189-21c0 0 161.9-223 111-333c-9.4-20.4-54.1-2.9-62.7-17.5c-14.8-25.2 46.2-75.6 80.7-78.5z" />
	<path id="Nose" class="s2" d="m1891 667c0 0-437.6-8.1-441-33c-3.5-25.6 450-69 450-69z" />
	<path id="Layer 2" class="s3" d="m2043.5 530c-16.9 0-30.5-15-30.5-33.5c0-18.5 13.6-33.5 30.5-33.5c16.9 0 30.5 15 30.5 33.5c0 18.5-13.6 33.5-30.5 33.5zm-232.5 12c-21 0-38-14.3-38-32c0-17.7 17-32 38-32c21 0 38 14.3 38 32c0 17.7-17 32-38 32zm-12 198c-2.8 0-5-4.9-5-11c0-6.1 2.2-11 5-11c2.8 0 5 4.9 5 11c0 6.1-2.2 11-5 11zm64.5 18c-5.3 0-9.5-4.9-9.5-11c0-6.1 4.2-11 9.5-11c5.3 0 9.5 4.9 9.5 11c0 6.1-4.2 11-9.5 11zm73.5 21c-9.4 0-17-5.6-17-12.5c0-6.9 7.6-12.5 17-12.5c9.4 0 17 5.6 17 12.5c0 6.9-7.6 12.5-17 12.5zm84-18c-7.7 0-14-6.9-14-15.5c0-8.6 6.3-15.5 14-15.5c7.7 0 14 6.9 14 15.5c0 8.6-6.3 15.5-14 15.5zm69-36c-7.7 0-14-6.9-14-15.5c0-8.6 6.3-15.5 14-15.5c7.7 0 14 6.9 14 15.5c0 8.6-6.3 15.5-14 15.5z" />
</svg>